<svg width="780" height="795" viewBox="0 0 780 795" fill="none" xmlns="http://www.w3.org/2000/svg">
<g filter="url(#filter0_d_343_2)">
<path d="M762.262 483.94C762.262 694.433 562.203 810.425 382.983 766.894C178.293 812.741 0 694.433 0 483.94C0 273.447 167.179 40.7534 382.983 125.501C583.969 37.9748 762.262 273.447 762.262 483.94Z" fill="#F66F66"/>
<path d="M383.908 127.624C483.244 84.3647 577.06 120.792 646.304 194.548C715.595 268.355 759.946 379.279 759.946 483.939C759.946 692.625 561.606 807.897 383.53 764.644L383.005 764.516L382.478 764.634C280.682 787.434 185.629 769.382 116.079 719.66C46.5638 669.963 2.31543 588.484 2.31543 483.939C2.31551 379.24 43.914 269.019 112.26 195.583C180.529 122.23 275.305 85.7031 382.137 127.656L383.029 128.006L383.908 127.624Z" stroke="#6F221D" stroke-opacity="0.3" stroke-width="4.631"/>
<circle cx="250.537" cy="398.729" r="100.493" fill="white"/>
<circle cx="250.537" cy="398.729" r="100.03" stroke="#6F221D" stroke-opacity="0.3" stroke-width="0.926199"/>
<circle cx="500.611" cy="398.729" r="100.493" fill="white"/>
<circle cx="500.611" cy="398.729" r="100.03" stroke="#6F221D" stroke-opacity="0.3" stroke-width="0.926199"/>
<circle cx="489.496" cy="384.836" r="67.1495" fill="#212121"/>
<circle cx="489.496" cy="384.836" r="66.6864" stroke="#6F221D" stroke-opacity="0.3" stroke-width="0.926199"/>
<circle cx="266.282" cy="384.836" r="67.1495" fill="#212121"/>
<circle cx="266.282" cy="384.836" r="66.6864" stroke="#6F221D" stroke-opacity="0.3" stroke-width="0.926199"/>
<path d="M272.302 30.0678C336.966 33.0451 370.038 104.501 378.49 139.857C383.773 99.2286 386.098 15.7394 353.132 6.80741C320.166 -2.12457 285.51 18.5927 272.302 30.0678Z" fill="#753A00" stroke="#6F221D" stroke-opacity="0.3" stroke-width="9.26199" stroke-linecap="round" stroke-linejoin="round"/>
<path d="M377.632 141.952C376.674 120.465 393.429 68.741 468.116 33.7427C472.825 79.6536 447.289 144.965 377.632 141.952Z" fill="#B5C343" stroke="#6F221D" stroke-opacity="0.3" stroke-width="4.631" stroke-linecap="round" stroke-linejoin="round"/>
</g>
<defs>
<filter id="filter0_d_343_2" x="0" y="0" width="779.86" height="794.301" filterUnits="userSpaceOnUse" color-interpolation-filters="sRGB">
<feFlood flood-opacity="0" result="BackgroundImageFix"/>
<feColorMatrix in="SourceAlpha" type="matrix" values="0 0 0 0 0 0 0 0 0 0 0 0 0 0 0 0 0 0 127 0" result="hardAlpha"/>
<feOffset dx="13.893" dy="13.893"/>
<feGaussianBlur stdDeviation="1.8524"/>
<feComposite in2="hardAlpha" operator="out"/>
<feColorMatrix type="matrix" values="0 0 0 0 0 0 0 0 0 0 0 0 0 0 0 0 0 0 0.25 0"/>
<feBlend mode="normal" in2="BackgroundImageFix" result="effect1_dropShadow_343_2"/>
<feBlend mode="normal" in="SourceGraphic" in2="effect1_dropShadow_343_2" result="shape"/>
</filter>
</defs>
</svg>
