<svg width="1440" height="1024" viewBox="0 0 1440 1024" fill="none" xmlns="http://www.w3.org/2000/svg">
<g clip-path="url(#clip0_343_66)">
<rect width="1440" height="1024" fill="white"/>
<g opacity="0.3">
<g opacity="0.3">
<path d="M164.371 95.646C156.032 120.436 127.876 126.172 108.493 113.945C82.5704 111.236 66.2591 90.2393 74.5978 65.4491C82.9364 40.6589 111.844 19.8768 133.902 38.4067C161.04 36.0606 172.71 70.8558 164.371 95.646Z" fill="#F66F66"/>
<circle cx="107.48" cy="65.3387" r="12.4868" transform="rotate(18.5913 107.48 65.3387)" fill="white"/>
<circle cx="136.931" cy="75.2454" r="12.4868" transform="rotate(18.5913 136.931 75.2454)" fill="white"/>
<circle cx="136.173" cy="73.1688" r="8.34375" transform="rotate(18.5913 136.173 73.1688)" fill="#212121"/>
<circle cx="109.884" cy="64.3263" r="8.34375" transform="rotate(18.5913 109.884 64.3263)" fill="#212121"/>
<path d="M124.648 22.783C132.145 25.6953 133.209 35.4209 132.804 39.9197C135.036 35.3441 138.617 25.6035 135.088 23.2456C131.56 20.8878 126.658 21.9548 124.648 22.783Z" fill="#753A00"/>
<path d="M132.62 40.1324C133.358 37.5639 137.381 32.136 147.563 30.9729C146.299 36.5665 140.704 43.2467 132.62 40.1324Z" fill="#B5C343"/>
<rect x="203" y="51.6982" width="147.016" height="72.8792" rx="10" transform="rotate(-30.0856 203 51.6982)" fill="#B5C343"/>
<ellipse cx="62" cy="211" rx="64" ry="56" fill="#75A9D5"/>
<path d="M232.125 167.519C233.445 159.935 242.48 156.624 248.388 161.559L339.446 237.619C345.354 242.554 343.705 252.034 336.477 254.683L225.078 295.512C217.85 298.161 210.465 291.992 211.785 284.408L232.125 167.519Z" fill="#FFC5D9"/>
<path d="M171.84 181L175.261 203.78L188.389 195.484L180.099 208.621L203 212.045L180.099 215.468L188.389 228.605L175.261 220.309L171.84 242L168.419 220.309L155.291 228.605L163.581 215.468L140 212.045L163.581 208.621L155.291 195.484L168.419 203.78L171.84 181Z" fill="#FFDE86"/>
<path d="M9.06773 42.3967C19.4221 45.102 25.4201 40.5979 29.003 26.8844C25.4201 40.5979 28.417 47.4521 38.8027 50.1655C28.417 47.4521 22.4076 52.1281 18.8675 65.6778C22.4076 52.1281 19.4221 45.102 9.06773 42.3967Z" fill="#FFDE86" stroke="#FFDE86" stroke-width="1.5" stroke-linejoin="round"/>
<path d="M299.004 189.17C310.839 189.172 315.998 182.677 316.001 167.003C315.998 182.677 321.12 189.174 332.991 189.176C321.12 189.174 315.996 195.856 315.993 211.343C315.996 195.856 310.839 189.172 299.004 189.17Z" fill="#F66F66"/>
<path d="M344.99 77V63.824L335.68 73.134C335.496 73.325 335.275 73.4774 335.031 73.5822C334.787 73.687 334.524 73.7422 334.259 73.7445C333.993 73.7468 333.73 73.6962 333.484 73.5956C333.238 73.4951 333.015 73.3466 332.827 73.1588C332.639 72.971 332.491 72.7477 332.39 72.5019C332.29 72.2561 332.239 71.9928 332.241 71.7272C332.244 71.4616 332.299 71.1992 332.404 70.9552C332.509 70.7112 332.661 70.4905 332.852 70.306L342.168 60.99H329C328.47 60.99 327.961 60.7793 327.586 60.4042C327.211 60.0291 327 59.5204 327 58.99C327 58.4596 327.211 57.9509 327.586 57.5758C327.961 57.2007 328.47 56.99 329 56.99H342.148L332.852 47.694C332.477 47.319 332.266 46.8102 332.266 46.2797C332.266 46.017 332.317 45.7569 332.418 45.5141C332.518 45.2714 332.665 45.0508 332.851 44.865C333.037 44.6792 333.257 44.5318 333.5 44.4311C333.742 44.3305 334.003 44.2787 334.265 44.2786C334.796 44.2784 335.305 44.489 335.68 44.864L344.99 54.176V41C344.99 40.4696 345.201 39.9609 345.576 39.5858C345.951 39.2107 346.46 39 346.99 39C347.52 39 348.029 39.2107 348.404 39.5858C348.779 39.9609 348.99 40.4696 348.99 41V54.168L358.306 44.852C358.49 44.661 358.711 44.5086 358.955 44.4038C359.199 44.299 359.462 44.2438 359.727 44.2415C359.993 44.2392 360.256 44.2898 360.502 44.3904C360.748 44.4909 360.971 44.6394 361.159 44.8272C361.347 45.015 361.495 45.2383 361.596 45.4841C361.696 45.7299 361.747 45.9932 361.744 46.2588C361.742 46.5244 361.687 46.7868 361.582 47.0308C361.477 47.2748 361.325 47.4955 361.134 47.68L351.824 56.99H365C365.53 56.99 366.039 57.2007 366.414 57.5758C366.789 57.9509 367 58.4596 367 58.99C367 59.5204 366.789 60.0291 366.414 60.4042C366.039 60.7793 365.53 60.99 365 60.99H351.804L361.134 70.32C361.498 70.6972 361.7 71.2024 361.695 71.7268C361.691 72.2512 361.48 72.7528 361.11 73.1236C360.739 73.4945 360.237 73.7048 359.713 73.7094C359.188 73.7139 358.683 73.5123 358.306 73.148L348.99 63.832V77C348.99 77.5304 348.779 78.0391 348.404 78.4142C348.029 78.7893 347.52 79 346.99 79C346.46 79 345.951 78.7893 345.576 78.4142C345.201 78.0391 344.99 77.5304 344.99 77Z" fill="#FFC5D9"/>
<path d="M545.371 99.646C537.032 124.436 508.876 130.172 489.493 117.945C463.57 115.236 447.259 94.2393 455.598 69.4491C463.936 44.6589 492.844 23.8768 514.902 42.4067C542.04 40.0606 553.71 74.8558 545.371 99.646Z" fill="#F66F66"/>
<circle cx="488.48" cy="69.3387" r="12.4868" transform="rotate(18.5913 488.48 69.3387)" fill="white"/>
<circle cx="517.931" cy="79.2454" r="12.4868" transform="rotate(18.5913 517.931 79.2454)" fill="white"/>
<circle cx="517.173" cy="77.1688" r="8.34375" transform="rotate(18.5913 517.173 77.1688)" fill="#212121"/>
<circle cx="490.884" cy="68.3263" r="8.34375" transform="rotate(18.5913 490.884 68.3263)" fill="#212121"/>
<path d="M505.647 26.783C513.145 29.6953 514.209 39.4209 513.804 43.9197C516.036 39.3441 519.617 29.6035 516.088 27.2456C512.56 24.8878 507.657 25.9548 505.647 26.783Z" fill="#753A00"/>
<path d="M513.62 44.1324C514.358 41.5639 518.381 36.136 528.563 34.9729C527.299 40.5665 521.704 47.2467 513.62 44.1324Z" fill="#B5C343"/>
<rect x="584" y="55.6982" width="147.016" height="72.8792" rx="10" transform="rotate(-30.0856 584 55.6982)" fill="#B5C343"/>
<ellipse cx="443" cy="215" rx="64" ry="56" fill="#75A9D5"/>
<path d="M613.125 171.519C614.445 163.935 623.48 160.624 629.388 165.559L720.446 241.619C726.354 246.554 724.705 256.034 717.477 258.683L606.078 299.512C598.85 302.161 591.465 295.992 592.785 288.408L613.125 171.519Z" fill="#FFC5D9"/>
<path d="M552.84 185L556.261 207.78L569.389 199.484L561.099 212.621L584 216.045L561.099 219.468L569.389 232.605L556.261 224.309L552.84 246L549.419 224.309L536.291 232.605L544.581 219.468L521 216.045L544.581 212.621L536.291 199.484L549.419 207.78L552.84 185Z" fill="#FFDE86"/>
<path d="M390.068 46.3967C400.422 49.102 406.42 44.5979 410.003 30.8844C406.42 44.5979 409.417 51.4521 419.803 54.1655C409.417 51.4521 403.408 56.1281 399.867 69.6778C403.408 56.1281 400.422 49.102 390.068 46.3967Z" fill="#FFDE86" stroke="#FFDE86" stroke-width="1.5" stroke-linejoin="round"/>
<path d="M680.004 193.17C691.839 193.172 696.998 186.677 697.001 171.003C696.998 186.677 702.12 193.174 713.991 193.176C702.12 193.174 696.996 199.856 696.993 215.343C696.996 199.856 691.839 193.172 680.004 193.17Z" fill="#F66F66"/>
<path d="M725.99 81V67.824L716.68 77.134C716.496 77.325 716.275 77.4774 716.031 77.5822C715.787 77.687 715.524 77.7422 715.259 77.7445C714.993 77.7468 714.73 77.6962 714.484 77.5956C714.238 77.4951 714.015 77.3466 713.827 77.1588C713.639 76.971 713.491 76.7477 713.39 76.5019C713.29 76.2561 713.239 75.9928 713.241 75.7272C713.244 75.4616 713.299 75.1992 713.404 74.9552C713.509 74.7112 713.661 74.4905 713.852 74.306L723.168 64.99H710C709.47 64.99 708.961 64.7793 708.586 64.4042C708.211 64.0291 708 63.5204 708 62.99C708 62.4596 708.211 61.9509 708.586 61.5758C708.961 61.2007 709.47 60.99 710 60.99H723.148L713.852 51.694C713.477 51.319 713.266 50.8102 713.266 50.2797C713.266 50.017 713.317 49.7569 713.418 49.5141C713.518 49.2714 713.665 49.0508 713.851 48.865C714.037 48.6792 714.257 48.5318 714.5 48.4311C714.742 48.3305 715.003 48.2787 715.265 48.2786C715.796 48.2784 716.305 48.489 716.68 48.864L725.99 58.176V45C725.99 44.4696 726.201 43.9609 726.576 43.5858C726.951 43.2107 727.46 43 727.99 43C728.52 43 729.029 43.2107 729.404 43.5858C729.779 43.9609 729.99 44.4696 729.99 45V58.168L739.306 48.852C739.49 48.661 739.711 48.5086 739.955 48.4038C740.199 48.299 740.462 48.2438 740.727 48.2415C740.993 48.2392 741.256 48.2898 741.502 48.3904C741.748 48.4909 741.971 48.6394 742.159 48.8272C742.347 49.015 742.495 49.2383 742.596 49.4841C742.696 49.7299 742.747 49.9932 742.744 50.2588C742.742 50.5244 742.687 50.7868 742.582 51.0308C742.477 51.2748 742.325 51.4955 742.134 51.68L732.824 60.99H746C746.53 60.99 747.039 61.2007 747.414 61.5758C747.789 61.9509 748 62.4596 748 62.99C748 63.5204 747.789 64.0291 747.414 64.4042C747.039 64.7793 746.53 64.99 746 64.99H732.804L742.134 74.32C742.498 74.6972 742.7 75.2024 742.695 75.7268C742.691 76.2512 742.48 76.7528 742.11 77.1236C741.739 77.4945 741.237 77.7048 740.713 77.7094C740.188 77.7139 739.683 77.5123 739.306 77.148L729.99 67.832V81C729.99 81.5304 729.779 82.0391 729.404 82.4142C729.029 82.7893 728.52 83 727.99 83C727.46 83 726.951 82.7893 726.576 82.4142C726.201 82.0391 725.99 81.5304 725.99 81Z" fill="#FFC5D9"/>
<path d="M166.371 425.646C158.032 450.436 129.876 456.172 110.493 443.945C84.5704 441.236 68.2591 420.239 76.5978 395.449C84.9364 370.659 113.844 349.877 135.902 368.407C163.04 366.061 174.71 400.856 166.371 425.646Z" fill="#F66F66"/>
<circle cx="109.48" cy="395.339" r="12.4868" transform="rotate(18.5913 109.48 395.339)" fill="white"/>
<circle cx="138.931" cy="405.245" r="12.4868" transform="rotate(18.5913 138.931 405.245)" fill="white"/>
<circle cx="138.173" cy="403.169" r="8.34375" transform="rotate(18.5913 138.173 403.169)" fill="#212121"/>
<circle cx="111.884" cy="394.326" r="8.34375" transform="rotate(18.5913 111.884 394.326)" fill="#212121"/>
<path d="M126.648 352.783C134.145 355.695 135.209 365.421 134.804 369.92C137.036 365.344 140.617 355.604 137.088 353.246C133.56 350.888 128.658 351.955 126.648 352.783Z" fill="#753A00"/>
<path d="M134.62 370.132C135.358 367.564 139.381 362.136 149.563 360.973C148.299 366.566 142.704 373.247 134.62 370.132Z" fill="#B5C343"/>
<rect x="205" y="381.698" width="147.016" height="72.8792" rx="10" transform="rotate(-30.0856 205 381.698)" fill="#B5C343"/>
<ellipse cx="64" cy="541" rx="64" ry="56" fill="#75A9D5"/>
<path d="M234.125 497.519C235.445 489.935 244.48 486.624 250.388 491.559L341.446 567.619C347.354 572.554 345.705 582.034 338.477 584.683L227.078 625.512C219.85 628.161 212.465 621.992 213.785 614.408L234.125 497.519Z" fill="#FFC5D9"/>
<path d="M173.84 511L177.261 533.78L190.389 525.484L182.099 538.621L205 542.045L182.099 545.468L190.389 558.605L177.261 550.309L173.84 572L170.419 550.309L157.291 558.605L165.581 545.468L142 542.045L165.581 538.621L157.291 525.484L170.419 533.78L173.84 511Z" fill="#FFDE86"/>
<path d="M11.0677 372.397C21.4221 375.102 27.4201 370.598 31.003 356.884C27.4201 370.598 30.417 377.452 40.8027 380.166C30.417 377.452 24.4076 382.128 20.8675 395.678C24.4076 382.128 21.4221 375.102 11.0677 372.397Z" fill="#FFDE86" stroke="#FFDE86" stroke-width="1.5" stroke-linejoin="round"/>
<path d="M301.004 519.17C312.839 519.172 317.998 512.677 318.001 497.003C317.998 512.677 323.12 519.174 334.991 519.176C323.12 519.174 317.996 525.856 317.993 541.343C317.996 525.856 312.839 519.172 301.004 519.17Z" fill="#F66F66"/>
<path d="M346.99 407V393.824L337.68 403.134C337.496 403.325 337.275 403.477 337.031 403.582C336.787 403.687 336.524 403.742 336.259 403.744C335.993 403.747 335.73 403.696 335.484 403.596C335.238 403.495 335.015 403.347 334.827 403.159C334.639 402.971 334.491 402.748 334.39 402.502C334.29 402.256 334.239 401.993 334.241 401.727C334.244 401.462 334.299 401.199 334.404 400.955C334.509 400.711 334.661 400.49 334.852 400.306L344.168 390.99H331C330.47 390.99 329.961 390.779 329.586 390.404C329.211 390.029 329 389.52 329 388.99C329 388.46 329.211 387.951 329.586 387.576C329.961 387.201 330.47 386.99 331 386.99H344.148L334.852 377.694C334.477 377.319 334.266 376.81 334.266 376.28C334.266 376.017 334.317 375.757 334.418 375.514C334.518 375.271 334.665 375.051 334.851 374.865C335.037 374.679 335.257 374.532 335.5 374.431C335.742 374.331 336.003 374.279 336.265 374.279C336.796 374.278 337.305 374.489 337.68 374.864L346.99 384.176V371C346.99 370.47 347.201 369.961 347.576 369.586C347.951 369.211 348.46 369 348.99 369C349.52 369 350.029 369.211 350.404 369.586C350.779 369.961 350.99 370.47 350.99 371V384.168L360.306 374.852C360.49 374.661 360.711 374.509 360.955 374.404C361.199 374.299 361.462 374.244 361.727 374.241C361.993 374.239 362.256 374.29 362.502 374.39C362.748 374.491 362.971 374.639 363.159 374.827C363.347 375.015 363.495 375.238 363.596 375.484C363.696 375.73 363.747 375.993 363.744 376.259C363.742 376.524 363.687 376.787 363.582 377.031C363.477 377.275 363.325 377.496 363.134 377.68L353.824 386.99H367C367.53 386.99 368.039 387.201 368.414 387.576C368.789 387.951 369 388.46 369 388.99C369 389.52 368.789 390.029 368.414 390.404C368.039 390.779 367.53 390.99 367 390.99H353.804L363.134 400.32C363.498 400.697 363.7 401.202 363.695 401.727C363.691 402.251 363.48 402.753 363.11 403.124C362.739 403.494 362.237 403.705 361.713 403.709C361.188 403.714 360.683 403.512 360.306 403.148L350.99 393.832V407C350.99 407.53 350.779 408.039 350.404 408.414C350.029 408.789 349.52 409 348.99 409C348.46 409 347.951 408.789 347.576 408.414C347.201 408.039 346.99 407.53 346.99 407Z" fill="#FFC5D9"/>
<path d="M547.371 429.646C539.032 454.436 510.876 460.172 491.493 447.945C465.57 445.236 449.259 424.239 457.598 399.449C465.936 374.659 494.844 353.877 516.902 372.407C544.04 370.061 555.71 404.856 547.371 429.646Z" fill="#F66F66"/>
<circle cx="490.48" cy="399.339" r="12.4868" transform="rotate(18.5913 490.48 399.339)" fill="white"/>
<circle cx="519.931" cy="409.245" r="12.4868" transform="rotate(18.5913 519.931 409.245)" fill="white"/>
<circle cx="519.173" cy="407.169" r="8.34375" transform="rotate(18.5913 519.173 407.169)" fill="#212121"/>
<circle cx="492.884" cy="398.326" r="8.34375" transform="rotate(18.5913 492.884 398.326)" fill="#212121"/>
<path d="M507.647 356.783C515.145 359.695 516.209 369.421 515.804 373.92C518.036 369.344 521.617 359.604 518.088 357.246C514.56 354.888 509.657 355.955 507.647 356.783Z" fill="#753A00"/>
<path d="M515.62 374.132C516.358 371.564 520.381 366.136 530.563 364.973C529.299 370.566 523.704 377.247 515.62 374.132Z" fill="#B5C343"/>
<rect x="586" y="385.698" width="147.016" height="72.8792" rx="10" transform="rotate(-30.0856 586 385.698)" fill="#B5C343"/>
<ellipse cx="445" cy="545" rx="64" ry="56" fill="#75A9D5"/>
<path d="M615.125 501.519C616.445 493.935 625.48 490.624 631.388 495.559L722.446 571.619C728.354 576.554 726.705 586.034 719.477 588.683L608.078 629.512C600.85 632.161 593.465 625.992 594.785 618.408L615.125 501.519Z" fill="#FFC5D9"/>
<path d="M554.84 515L558.261 537.78L571.389 529.484L563.099 542.621L586 546.045L563.099 549.468L571.389 562.605L558.261 554.309L554.84 576L551.419 554.309L538.291 562.605L546.581 549.468L523 546.045L546.581 542.621L538.291 529.484L551.419 537.78L554.84 515Z" fill="#FFDE86"/>
<path d="M392.068 376.397C402.422 379.102 408.42 374.598 412.003 360.884C408.42 374.598 411.417 381.452 421.803 384.166C411.417 381.452 405.408 386.128 401.867 399.678C405.408 386.128 402.422 379.102 392.068 376.397Z" fill="#FFDE86" stroke="#FFDE86" stroke-width="1.5" stroke-linejoin="round"/>
<path d="M682.004 523.17C693.839 523.172 698.998 516.677 699.001 501.003C698.998 516.677 704.12 523.174 715.991 523.176C704.12 523.174 698.996 529.856 698.993 545.343C698.996 529.856 693.839 523.172 682.004 523.17Z" fill="#F66F66"/>
<path d="M727.99 411V397.824L718.68 407.134C718.496 407.325 718.275 407.477 718.031 407.582C717.787 407.687 717.524 407.742 717.259 407.744C716.993 407.747 716.73 407.696 716.484 407.596C716.238 407.495 716.015 407.347 715.827 407.159C715.639 406.971 715.491 406.748 715.39 406.502C715.29 406.256 715.239 405.993 715.241 405.727C715.244 405.462 715.299 405.199 715.404 404.955C715.509 404.711 715.661 404.49 715.852 404.306L725.168 394.99H712C711.47 394.99 710.961 394.779 710.586 394.404C710.211 394.029 710 393.52 710 392.99C710 392.46 710.211 391.951 710.586 391.576C710.961 391.201 711.47 390.99 712 390.99H725.148L715.852 381.694C715.477 381.319 715.266 380.81 715.266 380.28C715.266 380.017 715.317 379.757 715.418 379.514C715.518 379.271 715.665 379.051 715.851 378.865C716.037 378.679 716.257 378.532 716.5 378.431C716.742 378.331 717.003 378.279 717.265 378.279C717.796 378.278 718.305 378.489 718.68 378.864L727.99 388.176V375C727.99 374.47 728.201 373.961 728.576 373.586C728.951 373.211 729.46 373 729.99 373C730.52 373 731.029 373.211 731.404 373.586C731.779 373.961 731.99 374.47 731.99 375V388.168L741.306 378.852C741.49 378.661 741.711 378.509 741.955 378.404C742.199 378.299 742.462 378.244 742.727 378.241C742.993 378.239 743.256 378.29 743.502 378.39C743.748 378.491 743.971 378.639 744.159 378.827C744.347 379.015 744.495 379.238 744.596 379.484C744.696 379.73 744.747 379.993 744.744 380.259C744.742 380.524 744.687 380.787 744.582 381.031C744.477 381.275 744.325 381.496 744.134 381.68L734.824 390.99H748C748.53 390.99 749.039 391.201 749.414 391.576C749.789 391.951 750 392.46 750 392.99C750 393.52 749.789 394.029 749.414 394.404C749.039 394.779 748.53 394.99 748 394.99H734.804L744.134 404.32C744.498 404.697 744.7 405.202 744.695 405.727C744.691 406.251 744.48 406.753 744.11 407.124C743.739 407.494 743.237 407.705 742.713 407.709C742.188 407.714 741.683 407.512 741.306 407.148L731.99 397.832V411C731.99 411.53 731.779 412.039 731.404 412.414C731.029 412.789 730.52 413 729.99 413C729.46 413 728.951 412.789 728.576 412.414C728.201 412.039 727.99 411.53 727.99 411Z" fill="#FFC5D9"/>
</g>
<g opacity="0.3">
<path d="M940.371 95.646C932.032 120.436 903.876 126.172 884.493 113.945C858.57 111.236 842.259 90.2393 850.598 65.4491C858.936 40.6589 887.844 19.8768 909.902 38.4067C937.04 36.0606 948.71 70.8558 940.371 95.646Z" fill="#F66F66"/>
<circle cx="883.48" cy="65.3387" r="12.4868" transform="rotate(18.5913 883.48 65.3387)" fill="white"/>
<circle cx="912.931" cy="75.2454" r="12.4868" transform="rotate(18.5913 912.931 75.2454)" fill="white"/>
<circle cx="912.173" cy="73.1688" r="8.34375" transform="rotate(18.5913 912.173 73.1688)" fill="#212121"/>
<circle cx="885.884" cy="64.3263" r="8.34375" transform="rotate(18.5913 885.884 64.3263)" fill="#212121"/>
<path d="M900.647 22.783C908.145 25.6953 909.209 35.4209 908.804 39.9197C911.036 35.3441 914.617 25.6035 911.088 23.2456C907.56 20.8878 902.658 21.9548 900.647 22.783Z" fill="#753A00"/>
<path d="M908.62 40.1324C909.358 37.5639 913.381 32.136 923.563 30.9729C922.299 36.5665 916.704 43.2467 908.62 40.1324Z" fill="#B5C343"/>
<rect x="979" y="51.6982" width="147.016" height="72.8792" rx="10" transform="rotate(-30.0856 979 51.6982)" fill="#B5C343"/>
<ellipse cx="838" cy="211" rx="64" ry="56" fill="#75A9D5"/>
<path d="M1008.13 167.519C1009.45 159.935 1018.48 156.624 1024.39 161.559L1115.45 237.619C1121.35 242.554 1119.7 252.034 1112.48 254.683L1001.08 295.512C993.85 298.161 986.465 291.992 987.785 284.408L1008.13 167.519Z" fill="#FFC5D9"/>
<path d="M947.84 181L951.261 203.78L964.389 195.484L956.099 208.621L979 212.045L956.099 215.468L964.389 228.605L951.261 220.309L947.84 242L944.419 220.309L931.291 228.605L939.581 215.468L916 212.045L939.581 208.621L931.291 195.484L944.419 203.78L947.84 181Z" fill="#FFDE86"/>
<path d="M785.068 42.3967C795.422 45.102 801.42 40.5979 805.003 26.8844C801.42 40.5979 804.417 47.4521 814.803 50.1655C804.417 47.4521 798.408 52.1281 794.867 65.6778C798.408 52.1281 795.422 45.102 785.068 42.3967Z" fill="#FFDE86" stroke="#FFDE86" stroke-width="1.5" stroke-linejoin="round"/>
<path d="M1075 189.17C1086.84 189.172 1092 182.677 1092 167.003C1092 182.677 1097.12 189.174 1108.99 189.176C1097.12 189.174 1092 195.856 1091.99 211.343C1092 195.856 1086.84 189.172 1075 189.17Z" fill="#F66F66"/>
<path d="M1120.99 77V63.824L1111.68 73.134C1111.5 73.325 1111.27 73.4774 1111.03 73.5822C1110.79 73.687 1110.52 73.7422 1110.26 73.7445C1109.99 73.7468 1109.73 73.6962 1109.48 73.5956C1109.24 73.4951 1109.01 73.3466 1108.83 73.1588C1108.64 72.971 1108.49 72.7477 1108.39 72.5019C1108.29 72.2561 1108.24 71.9928 1108.24 71.7272C1108.24 71.4616 1108.3 71.1992 1108.4 70.9552C1108.51 70.7112 1108.66 70.4905 1108.85 70.306L1118.17 60.99H1105C1104.47 60.99 1103.96 60.7793 1103.59 60.4042C1103.21 60.0291 1103 59.5204 1103 58.99C1103 58.4596 1103.21 57.9509 1103.59 57.5758C1103.96 57.2007 1104.47 56.99 1105 56.99H1118.15L1108.85 47.694C1108.48 47.319 1108.27 46.8102 1108.27 46.2797C1108.27 46.017 1108.32 45.7569 1108.42 45.5141C1108.52 45.2714 1108.67 45.0508 1108.85 44.865C1109.04 44.6792 1109.26 44.5318 1109.5 44.4311C1109.74 44.3305 1110 44.2787 1110.27 44.2786C1110.8 44.2784 1111.3 44.489 1111.68 44.864L1120.99 54.176V41C1120.99 40.4696 1121.2 39.9609 1121.58 39.5858C1121.95 39.2107 1122.46 39 1122.99 39C1123.52 39 1124.03 39.2107 1124.4 39.5858C1124.78 39.9609 1124.99 40.4696 1124.99 41V54.168L1134.31 44.852C1134.49 44.661 1134.71 44.5086 1134.96 44.4038C1135.2 44.299 1135.46 44.2438 1135.73 44.2415C1135.99 44.2392 1136.26 44.2898 1136.5 44.3904C1136.75 44.4909 1136.97 44.6394 1137.16 44.8272C1137.35 45.015 1137.5 45.2383 1137.6 45.4841C1137.7 45.7299 1137.75 45.9932 1137.74 46.2588C1137.74 46.5244 1137.69 46.7868 1137.58 47.0308C1137.48 47.2748 1137.33 47.4955 1137.13 47.68L1127.82 56.99H1141C1141.53 56.99 1142.04 57.2007 1142.41 57.5758C1142.79 57.9509 1143 58.4596 1143 58.99C1143 59.5204 1142.79 60.0291 1142.41 60.4042C1142.04 60.7793 1141.53 60.99 1141 60.99H1127.8L1137.13 70.32C1137.5 70.6972 1137.7 71.2024 1137.7 71.7268C1137.69 72.2512 1137.48 72.7528 1137.11 73.1236C1136.74 73.4945 1136.24 73.7048 1135.71 73.7094C1135.19 73.7139 1134.68 73.5123 1134.31 73.148L1124.99 63.832V77C1124.99 77.5304 1124.78 78.0391 1124.4 78.4142C1124.03 78.7893 1123.52 79 1122.99 79C1122.46 79 1121.95 78.7893 1121.58 78.4142C1121.2 78.0391 1120.99 77.5304 1120.99 77Z" fill="#FFC5D9"/>
<path d="M1321.37 99.646C1313.03 124.436 1284.88 130.172 1265.49 117.945C1239.57 115.236 1223.26 94.2393 1231.6 69.4491C1239.94 44.6589 1268.84 23.8768 1290.9 42.4067C1318.04 40.0606 1329.71 74.8558 1321.37 99.646Z" fill="#F66F66"/>
<circle cx="1264.48" cy="69.3387" r="12.4868" transform="rotate(18.5913 1264.48 69.3387)" fill="white"/>
<circle cx="1293.93" cy="79.2454" r="12.4868" transform="rotate(18.5913 1293.93 79.2454)" fill="white"/>
<circle cx="1293.17" cy="77.1688" r="8.34375" transform="rotate(18.5913 1293.17 77.1688)" fill="#212121"/>
<circle cx="1266.88" cy="68.3263" r="8.34375" transform="rotate(18.5913 1266.88 68.3263)" fill="#212121"/>
<path d="M1281.65 26.783C1289.15 29.6953 1290.21 39.4209 1289.8 43.9197C1292.04 39.3441 1295.62 29.6035 1292.09 27.2456C1288.56 24.8878 1283.66 25.9548 1281.65 26.783Z" fill="#753A00"/>
<path d="M1289.62 44.1324C1290.36 41.5639 1294.38 36.136 1304.56 34.9729C1303.3 40.5665 1297.7 47.2467 1289.62 44.1324Z" fill="#B5C343"/>
<rect x="1360" y="55.6982" width="147.016" height="72.8792" rx="10" transform="rotate(-30.0856 1360 55.6982)" fill="#B5C343"/>
<ellipse cx="1219" cy="215" rx="64" ry="56" fill="#75A9D5"/>
<path d="M1389.13 171.519C1390.45 163.935 1399.48 160.624 1405.39 165.559L1496.45 241.619C1502.35 246.554 1500.7 256.034 1493.48 258.683L1382.08 299.512C1374.85 302.161 1367.46 295.992 1368.78 288.408L1389.13 171.519Z" fill="#FFC5D9"/>
<path d="M1328.84 185L1332.26 207.78L1345.39 199.484L1337.1 212.621L1360 216.045L1337.1 219.468L1345.39 232.605L1332.26 224.309L1328.84 246L1325.42 224.309L1312.29 232.605L1320.58 219.468L1297 216.045L1320.58 212.621L1312.29 199.484L1325.42 207.78L1328.84 185Z" fill="#FFDE86"/>
<path d="M1166.07 46.3967C1176.42 49.102 1182.42 44.5979 1186 30.8844C1182.42 44.5979 1185.42 51.4521 1195.8 54.1655C1185.42 51.4521 1179.41 56.1281 1175.87 69.6778C1179.41 56.1281 1176.42 49.102 1166.07 46.3967Z" fill="#FFDE86" stroke="#FFDE86" stroke-width="1.5" stroke-linejoin="round"/>
<path d="M942.371 425.646C934.032 450.436 905.876 456.172 886.493 443.945C860.57 441.236 844.259 420.239 852.598 395.449C860.936 370.659 889.844 349.877 911.902 368.407C939.04 366.061 950.71 400.856 942.371 425.646Z" fill="#F66F66"/>
<circle cx="885.48" cy="395.339" r="12.4868" transform="rotate(18.5913 885.48 395.339)" fill="white"/>
<circle cx="914.931" cy="405.245" r="12.4868" transform="rotate(18.5913 914.931 405.245)" fill="white"/>
<circle cx="914.173" cy="403.169" r="8.34375" transform="rotate(18.5913 914.173 403.169)" fill="#212121"/>
<circle cx="887.884" cy="394.326" r="8.34375" transform="rotate(18.5913 887.884 394.326)" fill="#212121"/>
<path d="M902.647 352.783C910.145 355.695 911.209 365.421 910.804 369.92C913.036 365.344 916.617 355.604 913.088 353.246C909.56 350.888 904.658 351.955 902.647 352.783Z" fill="#753A00"/>
<path d="M910.62 370.132C911.358 367.564 915.381 362.136 925.563 360.973C924.299 366.566 918.704 373.247 910.62 370.132Z" fill="#B5C343"/>
<rect x="981" y="381.698" width="147.016" height="72.8792" rx="10" transform="rotate(-30.0856 981 381.698)" fill="#B5C343"/>
<ellipse cx="840" cy="541" rx="64" ry="56" fill="#75A9D5"/>
<path d="M1010.13 497.519C1011.45 489.935 1020.48 486.624 1026.39 491.559L1117.45 567.619C1123.35 572.554 1121.7 582.034 1114.48 584.683L1003.08 625.512C995.85 628.161 988.465 621.992 989.785 614.408L1010.13 497.519Z" fill="#FFC5D9"/>
<path d="M949.84 511L953.261 533.78L966.389 525.484L958.099 538.621L981 542.045L958.099 545.468L966.389 558.605L953.261 550.309L949.84 572L946.419 550.309L933.291 558.605L941.581 545.468L918 542.045L941.581 538.621L933.291 525.484L946.419 533.78L949.84 511Z" fill="#FFDE86"/>
<path d="M787.068 372.397C797.422 375.102 803.42 370.598 807.003 356.884C803.42 370.598 806.417 377.452 816.803 380.166C806.417 377.452 800.408 382.128 796.867 395.678C800.408 382.128 797.422 375.102 787.068 372.397Z" fill="#FFDE86" stroke="#FFDE86" stroke-width="1.5" stroke-linejoin="round"/>
<path d="M1077 519.17C1088.84 519.172 1094 512.677 1094 497.003C1094 512.677 1099.12 519.174 1110.99 519.176C1099.12 519.174 1094 525.856 1093.99 541.343C1094 525.856 1088.84 519.172 1077 519.17Z" fill="#F66F66"/>
<path d="M1122.99 407V393.824L1113.68 403.134C1113.5 403.325 1113.27 403.477 1113.03 403.582C1112.79 403.687 1112.52 403.742 1112.26 403.744C1111.99 403.747 1111.73 403.696 1111.48 403.596C1111.24 403.495 1111.01 403.347 1110.83 403.159C1110.64 402.971 1110.49 402.748 1110.39 402.502C1110.29 402.256 1110.24 401.993 1110.24 401.727C1110.24 401.462 1110.3 401.199 1110.4 400.955C1110.51 400.711 1110.66 400.49 1110.85 400.306L1120.17 390.99H1107C1106.47 390.99 1105.96 390.779 1105.59 390.404C1105.21 390.029 1105 389.52 1105 388.99C1105 388.46 1105.21 387.951 1105.59 387.576C1105.96 387.201 1106.47 386.99 1107 386.99H1120.15L1110.85 377.694C1110.48 377.319 1110.27 376.81 1110.27 376.28C1110.27 376.017 1110.32 375.757 1110.42 375.514C1110.52 375.271 1110.67 375.051 1110.85 374.865C1111.04 374.679 1111.26 374.532 1111.5 374.431C1111.74 374.331 1112 374.279 1112.27 374.279C1112.8 374.278 1113.3 374.489 1113.68 374.864L1122.99 384.176V371C1122.99 370.47 1123.2 369.961 1123.58 369.586C1123.95 369.211 1124.46 369 1124.99 369C1125.52 369 1126.03 369.211 1126.4 369.586C1126.78 369.961 1126.99 370.47 1126.99 371V384.168L1136.31 374.852C1136.49 374.661 1136.71 374.509 1136.96 374.404C1137.2 374.299 1137.46 374.244 1137.73 374.241C1137.99 374.239 1138.26 374.29 1138.5 374.39C1138.75 374.491 1138.97 374.639 1139.16 374.827C1139.35 375.015 1139.5 375.238 1139.6 375.484C1139.7 375.73 1139.75 375.993 1139.74 376.259C1139.74 376.524 1139.69 376.787 1139.58 377.031C1139.48 377.275 1139.33 377.496 1139.13 377.68L1129.82 386.99H1143C1143.53 386.99 1144.04 387.201 1144.41 387.576C1144.79 387.951 1145 388.46 1145 388.99C1145 389.52 1144.79 390.029 1144.41 390.404C1144.04 390.779 1143.53 390.99 1143 390.99H1129.8L1139.13 400.32C1139.5 400.697 1139.7 401.202 1139.7 401.727C1139.69 402.251 1139.48 402.753 1139.11 403.124C1138.74 403.494 1138.24 403.705 1137.71 403.709C1137.19 403.714 1136.68 403.512 1136.31 403.148L1126.99 393.832V407C1126.99 407.53 1126.78 408.039 1126.4 408.414C1126.03 408.789 1125.52 409 1124.99 409C1124.46 409 1123.95 408.789 1123.58 408.414C1123.2 408.039 1122.99 407.53 1122.99 407Z" fill="#FFC5D9"/>
<path d="M1323.37 429.646C1315.03 454.436 1286.88 460.172 1267.49 447.945C1241.57 445.236 1225.26 424.239 1233.6 399.449C1241.94 374.659 1270.84 353.877 1292.9 372.407C1320.04 370.061 1331.71 404.856 1323.37 429.646Z" fill="#F66F66"/>
<circle cx="1266.48" cy="399.339" r="12.4868" transform="rotate(18.5913 1266.48 399.339)" fill="white"/>
<circle cx="1295.93" cy="409.245" r="12.4868" transform="rotate(18.5913 1295.93 409.245)" fill="white"/>
<circle cx="1295.17" cy="407.169" r="8.34375" transform="rotate(18.5913 1295.17 407.169)" fill="#212121"/>
<circle cx="1268.88" cy="398.326" r="8.34375" transform="rotate(18.5913 1268.88 398.326)" fill="#212121"/>
<path d="M1283.65 356.783C1291.15 359.695 1292.21 369.421 1291.8 373.92C1294.04 369.344 1297.62 359.604 1294.09 357.246C1290.56 354.888 1285.66 355.955 1283.65 356.783Z" fill="#753A00"/>
<path d="M1291.62 374.132C1292.36 371.564 1296.38 366.136 1306.56 364.973C1305.3 370.566 1299.7 377.247 1291.62 374.132Z" fill="#B5C343"/>
<rect x="1362" y="385.698" width="147.016" height="72.8792" rx="10" transform="rotate(-30.0856 1362 385.698)" fill="#B5C343"/>
<ellipse cx="1221" cy="545" rx="64" ry="56" fill="#75A9D5"/>
<path d="M1391.13 501.519C1392.45 493.935 1401.48 490.624 1407.39 495.559L1498.45 571.619C1504.35 576.554 1502.7 586.034 1495.48 588.683L1384.08 629.512C1376.85 632.161 1369.46 625.992 1370.78 618.408L1391.13 501.519Z" fill="#FFC5D9"/>
<path d="M1330.84 515L1334.26 537.78L1347.39 529.484L1339.1 542.621L1362 546.045L1339.1 549.468L1347.39 562.605L1334.26 554.309L1330.84 576L1327.42 554.309L1314.29 562.605L1322.58 549.468L1299 546.045L1322.58 542.621L1314.29 529.484L1327.42 537.78L1330.84 515Z" fill="#FFDE86"/>
<path d="M1168.07 376.397C1178.42 379.102 1184.42 374.598 1188 360.884C1184.42 374.598 1187.42 381.452 1197.8 384.166C1187.42 381.452 1181.41 386.128 1177.87 399.678C1181.41 386.128 1178.42 379.102 1168.07 376.397Z" fill="#FFDE86" stroke="#FFDE86" stroke-width="1.5" stroke-linejoin="round"/>
</g>
<g opacity="0.3">
<path d="M170.371 752.646C162.032 777.436 133.876 783.172 114.493 770.945C88.5704 768.236 72.2591 747.239 80.5978 722.449C88.9364 697.659 117.844 676.877 139.902 695.407C167.04 693.061 178.71 727.856 170.371 752.646Z" fill="#F66F66"/>
<circle cx="113.48" cy="722.339" r="12.4868" transform="rotate(18.5913 113.48 722.339)" fill="white"/>
<circle cx="142.931" cy="732.245" r="12.4868" transform="rotate(18.5913 142.931 732.245)" fill="white"/>
<circle cx="142.173" cy="730.169" r="8.34375" transform="rotate(18.5913 142.173 730.169)" fill="#212121"/>
<circle cx="115.884" cy="721.326" r="8.34375" transform="rotate(18.5913 115.884 721.326)" fill="#212121"/>
<path d="M130.648 679.783C138.145 682.695 139.209 692.421 138.804 696.92C141.036 692.344 144.617 682.604 141.088 680.246C137.56 677.888 132.658 678.955 130.648 679.783Z" fill="#753A00"/>
<path d="M138.62 697.132C139.358 694.564 143.381 689.136 153.563 687.973C152.299 693.566 146.704 700.247 138.62 697.132Z" fill="#B5C343"/>
<rect x="209" y="708.698" width="147.016" height="72.8792" rx="10" transform="rotate(-30.0856 209 708.698)" fill="#B5C343"/>
<ellipse cx="68" cy="868" rx="64" ry="56" fill="#75A9D5"/>
<path d="M238.125 824.519C239.445 816.935 248.48 813.624 254.388 818.559L345.446 894.619C351.354 899.554 349.705 909.034 342.477 911.683L231.078 952.512C223.85 955.161 216.465 948.992 217.785 941.408L238.125 824.519Z" fill="#FFC5D9"/>
<path d="M177.84 838L181.261 860.78L194.389 852.484L186.099 865.621L209 869.045L186.099 872.468L194.389 885.605L181.261 877.309L177.84 899L174.419 877.309L161.291 885.605L169.581 872.468L146 869.045L169.581 865.621L161.291 852.484L174.419 860.78L177.84 838Z" fill="#FFDE86"/>
<path d="M15.0677 699.397C25.4221 702.102 31.4201 697.598 35.003 683.884C31.4201 697.598 34.417 704.452 44.8027 707.166C34.417 704.452 28.4076 709.128 24.8675 722.678C28.4076 709.128 25.4221 702.102 15.0677 699.397Z" fill="#FFDE86" stroke="#FFDE86" stroke-width="1.5" stroke-linejoin="round"/>
<path d="M305.004 846.17C316.839 846.172 321.998 839.677 322.001 824.003C321.998 839.677 327.12 846.174 338.991 846.176C327.12 846.174 321.996 852.856 321.993 868.343C321.996 852.856 316.839 846.172 305.004 846.17Z" fill="#F66F66"/>
<path d="M350.99 734V720.824L341.68 730.134C341.496 730.325 341.275 730.477 341.031 730.582C340.787 730.687 340.524 730.742 340.259 730.744C339.993 730.747 339.73 730.696 339.484 730.596C339.238 730.495 339.015 730.347 338.827 730.159C338.639 729.971 338.491 729.748 338.39 729.502C338.29 729.256 338.239 728.993 338.241 728.727C338.244 728.462 338.299 728.199 338.404 727.955C338.509 727.711 338.661 727.49 338.852 727.306L348.168 717.99H335C334.47 717.99 333.961 717.779 333.586 717.404C333.211 717.029 333 716.52 333 715.99C333 715.46 333.211 714.951 333.586 714.576C333.961 714.201 334.47 713.99 335 713.99H348.148L338.852 704.694C338.477 704.319 338.266 703.81 338.266 703.28C338.266 703.017 338.317 702.757 338.418 702.514C338.518 702.271 338.665 702.051 338.851 701.865C339.037 701.679 339.257 701.532 339.5 701.431C339.742 701.331 340.003 701.279 340.265 701.279C340.796 701.278 341.305 701.489 341.68 701.864L350.99 711.176V698C350.99 697.47 351.201 696.961 351.576 696.586C351.951 696.211 352.46 696 352.99 696C353.52 696 354.029 696.211 354.404 696.586C354.779 696.961 354.99 697.47 354.99 698V711.168L364.306 701.852C364.49 701.661 364.711 701.509 364.955 701.404C365.199 701.299 365.462 701.244 365.727 701.241C365.993 701.239 366.256 701.29 366.502 701.39C366.748 701.491 366.971 701.639 367.159 701.827C367.347 702.015 367.495 702.238 367.596 702.484C367.696 702.73 367.747 702.993 367.744 703.259C367.742 703.524 367.687 703.787 367.582 704.031C367.477 704.275 367.325 704.496 367.134 704.68L357.824 713.99H371C371.53 713.99 372.039 714.201 372.414 714.576C372.789 714.951 373 715.46 373 715.99C373 716.52 372.789 717.029 372.414 717.404C372.039 717.779 371.53 717.99 371 717.99H357.804L367.134 727.32C367.498 727.697 367.7 728.202 367.695 728.727C367.691 729.251 367.48 729.753 367.11 730.124C366.739 730.494 366.237 730.705 365.713 730.709C365.188 730.714 364.683 730.512 364.306 730.148L354.99 720.832V734C354.99 734.53 354.779 735.039 354.404 735.414C354.029 735.789 353.52 736 352.99 736C352.46 736 351.951 735.789 351.576 735.414C351.201 735.039 350.99 734.53 350.99 734Z" fill="#FFC5D9"/>
<path d="M551.371 756.646C543.032 781.436 514.876 787.172 495.493 774.945C469.57 772.236 453.259 751.239 461.598 726.449C469.936 701.659 498.844 680.877 520.902 699.407C548.04 697.061 559.71 731.856 551.371 756.646Z" fill="#F66F66"/>
<circle cx="494.48" cy="726.339" r="12.4868" transform="rotate(18.5913 494.48 726.339)" fill="white"/>
<circle cx="523.931" cy="736.245" r="12.4868" transform="rotate(18.5913 523.931 736.245)" fill="white"/>
<circle cx="523.173" cy="734.169" r="8.34375" transform="rotate(18.5913 523.173 734.169)" fill="#212121"/>
<circle cx="496.884" cy="725.326" r="8.34375" transform="rotate(18.5913 496.884 725.326)" fill="#212121"/>
<path d="M511.647 683.783C519.145 686.695 520.209 696.421 519.804 700.92C522.036 696.344 525.617 686.604 522.088 684.246C518.56 681.888 513.657 682.955 511.647 683.783Z" fill="#753A00"/>
<path d="M519.62 701.132C520.358 698.564 524.381 693.136 534.563 691.973C533.299 697.566 527.704 704.247 519.62 701.132Z" fill="#B5C343"/>
<rect x="590" y="712.698" width="147.016" height="72.8792" rx="10" transform="rotate(-30.0856 590 712.698)" fill="#B5C343"/>
<ellipse cx="449" cy="872" rx="64" ry="56" fill="#75A9D5"/>
<path d="M619.125 828.519C620.445 820.935 629.48 817.624 635.388 822.559L726.446 898.619C732.354 903.554 730.705 913.034 723.477 915.683L612.078 956.512C604.85 959.161 597.465 952.992 598.785 945.408L619.125 828.519Z" fill="#FFC5D9"/>
<path d="M558.84 842L562.261 864.78L575.389 856.484L567.099 869.621L590 873.045L567.099 876.468L575.389 889.605L562.261 881.309L558.84 903L555.419 881.309L542.291 889.605L550.581 876.468L527 873.045L550.581 869.621L542.291 856.484L555.419 864.78L558.84 842Z" fill="#FFDE86"/>
<path d="M396.068 703.397C406.422 706.102 412.42 701.598 416.003 687.884C412.42 701.598 415.417 708.452 425.803 711.166C415.417 708.452 409.408 713.128 405.867 726.678C409.408 713.128 406.422 706.102 396.068 703.397Z" fill="#FFDE86" stroke="#FFDE86" stroke-width="1.5" stroke-linejoin="round"/>
<path d="M686.004 850.17C697.839 850.172 702.998 843.677 703.001 828.003C702.998 843.677 708.12 850.174 719.991 850.176C708.12 850.174 702.996 856.856 702.993 872.343C702.996 856.856 697.839 850.172 686.004 850.17Z" fill="#F66F66"/>
<path d="M731.99 738V724.824L722.68 734.134C722.496 734.325 722.275 734.477 722.031 734.582C721.787 734.687 721.524 734.742 721.259 734.744C720.993 734.747 720.73 734.696 720.484 734.596C720.238 734.495 720.015 734.347 719.827 734.159C719.639 733.971 719.491 733.748 719.39 733.502C719.29 733.256 719.239 732.993 719.241 732.727C719.244 732.462 719.299 732.199 719.404 731.955C719.509 731.711 719.661 731.49 719.852 731.306L729.168 721.99H716C715.47 721.99 714.961 721.779 714.586 721.404C714.211 721.029 714 720.52 714 719.99C714 719.46 714.211 718.951 714.586 718.576C714.961 718.201 715.47 717.99 716 717.99H729.148L719.852 708.694C719.477 708.319 719.266 707.81 719.266 707.28C719.266 707.017 719.317 706.757 719.418 706.514C719.518 706.271 719.665 706.051 719.851 705.865C720.037 705.679 720.257 705.532 720.5 705.431C720.742 705.331 721.003 705.279 721.265 705.279C721.796 705.278 722.305 705.489 722.68 705.864L731.99 715.176V702C731.99 701.47 732.201 700.961 732.576 700.586C732.951 700.211 733.46 700 733.99 700C734.52 700 735.029 700.211 735.404 700.586C735.779 700.961 735.99 701.47 735.99 702V715.168L745.306 705.852C745.49 705.661 745.711 705.509 745.955 705.404C746.199 705.299 746.462 705.244 746.727 705.241C746.993 705.239 747.256 705.29 747.502 705.39C747.748 705.491 747.971 705.639 748.159 705.827C748.347 706.015 748.495 706.238 748.596 706.484C748.696 706.73 748.747 706.993 748.744 707.259C748.742 707.524 748.687 707.787 748.582 708.031C748.477 708.275 748.325 708.496 748.134 708.68L738.824 717.99H752C752.53 717.99 753.039 718.201 753.414 718.576C753.789 718.951 754 719.46 754 719.99C754 720.52 753.789 721.029 753.414 721.404C753.039 721.779 752.53 721.99 752 721.99H738.804L748.134 731.32C748.498 731.697 748.7 732.202 748.695 732.727C748.691 733.251 748.48 733.753 748.11 734.124C747.739 734.494 747.237 734.705 746.713 734.709C746.188 734.714 745.683 734.512 745.306 734.148L735.99 724.832V738C735.99 738.53 735.779 739.039 735.404 739.414C735.029 739.789 734.52 740 733.99 740C733.46 740 732.951 739.789 732.576 739.414C732.201 739.039 731.99 738.53 731.99 738Z" fill="#FFC5D9"/>
<path d="M172.371 1082.65C164.032 1107.44 135.876 1113.17 116.493 1100.95C90.5704 1098.24 74.2591 1077.24 82.5978 1052.45C90.9364 1027.66 119.844 1006.88 141.902 1025.41C169.04 1023.06 180.71 1057.86 172.371 1082.65Z" fill="#F66F66"/>
<path d="M132.648 1009.78C140.145 1012.7 141.209 1022.42 140.804 1026.92C143.036 1022.34 146.617 1012.6 143.088 1010.25C139.56 1007.89 134.658 1008.95 132.648 1009.78Z" fill="#753A00"/>
<path d="M140.62 1027.13C141.358 1024.56 145.381 1019.14 155.563 1017.97C154.299 1023.57 148.704 1030.25 140.62 1027.13Z" fill="#B5C343"/>
<rect x="211" y="1038.7" width="147.016" height="72.8792" rx="10" transform="rotate(-30.0856 211 1038.7)" fill="#B5C343"/>
<path d="M17.0677 1029.4C27.4221 1032.1 33.4201 1027.6 37.003 1013.88C33.4201 1027.6 36.417 1034.45 46.8027 1037.17C36.417 1034.45 30.4076 1039.13 26.8675 1052.68C30.4076 1039.13 27.4221 1032.1 17.0677 1029.4Z" fill="#FFDE86" stroke="#FFDE86" stroke-width="1.5" stroke-linejoin="round"/>
<path d="M553.371 1086.65C545.032 1111.44 516.876 1117.17 497.493 1104.95C471.57 1102.24 455.259 1081.24 463.598 1056.45C471.936 1031.66 500.844 1010.88 522.902 1029.41C550.04 1027.06 561.71 1061.86 553.371 1086.65Z" fill="#F66F66"/>
<path d="M513.647 1013.78C521.145 1016.7 522.209 1026.42 521.804 1030.92C524.036 1026.34 527.617 1016.6 524.088 1014.25C520.56 1011.89 515.657 1012.95 513.647 1013.78Z" fill="#753A00"/>
<path d="M521.62 1031.13C522.358 1028.56 526.381 1023.14 536.563 1021.97C535.299 1027.57 529.704 1034.25 521.62 1031.13Z" fill="#B5C343"/>
<rect x="592" y="1042.7" width="147.016" height="72.8792" rx="10" transform="rotate(-30.0856 592 1042.7)" fill="#B5C343"/>
<path d="M398.068 1033.4C408.422 1036.1 414.42 1031.6 418.003 1017.88C414.42 1031.6 417.417 1038.45 427.803 1041.17C417.417 1038.45 411.408 1043.13 407.867 1056.68C411.408 1043.13 408.422 1036.1 398.068 1033.4Z" fill="#FFDE86" stroke="#FFDE86" stroke-width="1.5" stroke-linejoin="round"/>
</g>
<g opacity="0.3">
<path d="M942.371 752.646C934.032 777.436 905.876 783.172 886.493 770.945C860.57 768.236 844.259 747.239 852.598 722.449C860.936 697.659 889.844 676.877 911.902 695.407C939.04 693.061 950.71 727.856 942.371 752.646Z" fill="#F66F66"/>
<circle cx="885.48" cy="722.339" r="12.4868" transform="rotate(18.5913 885.48 722.339)" fill="white"/>
<circle cx="914.931" cy="732.245" r="12.4868" transform="rotate(18.5913 914.931 732.245)" fill="white"/>
<circle cx="914.173" cy="730.169" r="8.34375" transform="rotate(18.5913 914.173 730.169)" fill="#212121"/>
<circle cx="887.884" cy="721.326" r="8.34375" transform="rotate(18.5913 887.884 721.326)" fill="#212121"/>
<path d="M902.647 679.783C910.145 682.695 911.209 692.421 910.804 696.92C913.036 692.344 916.617 682.604 913.088 680.246C909.56 677.888 904.658 678.955 902.647 679.783Z" fill="#753A00"/>
<path d="M910.62 697.132C911.358 694.564 915.381 689.136 925.563 687.973C924.299 693.566 918.704 700.247 910.62 697.132Z" fill="#B5C343"/>
<rect x="981" y="708.698" width="147.016" height="72.8792" rx="10" transform="rotate(-30.0856 981 708.698)" fill="#B5C343"/>
<ellipse cx="840" cy="868" rx="64" ry="56" fill="#75A9D5"/>
<path d="M1010.13 824.519C1011.45 816.935 1020.48 813.624 1026.39 818.559L1117.45 894.619C1123.35 899.554 1121.7 909.034 1114.48 911.683L1003.08 952.512C995.85 955.161 988.465 948.992 989.785 941.408L1010.13 824.519Z" fill="#FFC5D9"/>
<path d="M949.84 838L953.261 860.78L966.389 852.484L958.099 865.621L981 869.045L958.099 872.468L966.389 885.605L953.261 877.309L949.84 899L946.419 877.309L933.291 885.605L941.581 872.468L918 869.045L941.581 865.621L933.291 852.484L946.419 860.78L949.84 838Z" fill="#FFDE86"/>
<path d="M787.068 699.397C797.422 702.102 803.42 697.598 807.003 683.884C803.42 697.598 806.417 704.452 816.803 707.166C806.417 704.452 800.408 709.128 796.867 722.678C800.408 709.128 797.422 702.102 787.068 699.397Z" fill="#FFDE86" stroke="#FFDE86" stroke-width="1.5" stroke-linejoin="round"/>
<path d="M1077 846.17C1088.84 846.172 1094 839.677 1094 824.003C1094 839.677 1099.12 846.174 1110.99 846.176C1099.12 846.174 1094 852.856 1093.99 868.343C1094 852.856 1088.84 846.172 1077 846.17Z" fill="#F66F66"/>
<path d="M1122.99 734V720.824L1113.68 730.134C1113.5 730.325 1113.27 730.477 1113.03 730.582C1112.79 730.687 1112.52 730.742 1112.26 730.744C1111.99 730.747 1111.73 730.696 1111.48 730.596C1111.24 730.495 1111.01 730.347 1110.83 730.159C1110.64 729.971 1110.49 729.748 1110.39 729.502C1110.29 729.256 1110.24 728.993 1110.24 728.727C1110.24 728.462 1110.3 728.199 1110.4 727.955C1110.51 727.711 1110.66 727.49 1110.85 727.306L1120.17 717.99H1107C1106.47 717.99 1105.96 717.779 1105.59 717.404C1105.21 717.029 1105 716.52 1105 715.99C1105 715.46 1105.21 714.951 1105.59 714.576C1105.96 714.201 1106.47 713.99 1107 713.99H1120.15L1110.85 704.694C1110.48 704.319 1110.27 703.81 1110.27 703.28C1110.27 703.017 1110.32 702.757 1110.42 702.514C1110.52 702.271 1110.67 702.051 1110.85 701.865C1111.04 701.679 1111.26 701.532 1111.5 701.431C1111.74 701.331 1112 701.279 1112.27 701.279C1112.8 701.278 1113.3 701.489 1113.68 701.864L1122.99 711.176V698C1122.99 697.47 1123.2 696.961 1123.58 696.586C1123.95 696.211 1124.46 696 1124.99 696C1125.52 696 1126.03 696.211 1126.4 696.586C1126.78 696.961 1126.99 697.47 1126.99 698V711.168L1136.31 701.852C1136.49 701.661 1136.71 701.509 1136.96 701.404C1137.2 701.299 1137.46 701.244 1137.73 701.241C1137.99 701.239 1138.26 701.29 1138.5 701.39C1138.75 701.491 1138.97 701.639 1139.16 701.827C1139.35 702.015 1139.5 702.238 1139.6 702.484C1139.7 702.73 1139.75 702.993 1139.74 703.259C1139.74 703.524 1139.69 703.787 1139.58 704.031C1139.48 704.275 1139.33 704.496 1139.13 704.68L1129.82 713.99H1143C1143.53 713.99 1144.04 714.201 1144.41 714.576C1144.79 714.951 1145 715.46 1145 715.99C1145 716.52 1144.79 717.029 1144.41 717.404C1144.04 717.779 1143.53 717.99 1143 717.99H1129.8L1139.13 727.32C1139.5 727.697 1139.7 728.202 1139.7 728.727C1139.69 729.251 1139.48 729.753 1139.11 730.124C1138.74 730.494 1138.24 730.705 1137.71 730.709C1137.19 730.714 1136.68 730.512 1136.31 730.148L1126.99 720.832V734C1126.99 734.53 1126.78 735.039 1126.4 735.414C1126.03 735.789 1125.52 736 1124.99 736C1124.46 736 1123.95 735.789 1123.58 735.414C1123.2 735.039 1122.99 734.53 1122.99 734Z" fill="#FFC5D9"/>
<path d="M1323.37 756.646C1315.03 781.436 1286.88 787.172 1267.49 774.945C1241.57 772.236 1225.26 751.239 1233.6 726.449C1241.94 701.659 1270.84 680.877 1292.9 699.407C1320.04 697.061 1331.71 731.856 1323.37 756.646Z" fill="#F66F66"/>
<circle cx="1266.48" cy="726.339" r="12.4868" transform="rotate(18.5913 1266.48 726.339)" fill="white"/>
<circle cx="1295.93" cy="736.245" r="12.4868" transform="rotate(18.5913 1295.93 736.245)" fill="white"/>
<circle cx="1295.17" cy="734.169" r="8.34375" transform="rotate(18.5913 1295.17 734.169)" fill="#212121"/>
<circle cx="1268.88" cy="725.326" r="8.34375" transform="rotate(18.5913 1268.88 725.326)" fill="#212121"/>
<path d="M1283.65 683.783C1291.15 686.695 1292.21 696.421 1291.8 700.92C1294.04 696.344 1297.62 686.604 1294.09 684.246C1290.56 681.888 1285.66 682.955 1283.65 683.783Z" fill="#753A00"/>
<path d="M1291.62 701.132C1292.36 698.564 1296.38 693.136 1306.56 691.973C1305.3 697.566 1299.7 704.247 1291.62 701.132Z" fill="#B5C343"/>
<rect x="1362" y="712.698" width="147.016" height="72.8792" rx="10" transform="rotate(-30.0856 1362 712.698)" fill="#B5C343"/>
<ellipse cx="1221" cy="872" rx="64" ry="56" fill="#75A9D5"/>
<path d="M1391.13 828.519C1392.45 820.935 1401.48 817.624 1407.39 822.559L1498.45 898.619C1504.35 903.554 1502.7 913.034 1495.48 915.683L1384.08 956.512C1376.85 959.161 1369.46 952.992 1370.78 945.408L1391.13 828.519Z" fill="#FFC5D9"/>
<path d="M1330.84 842L1334.26 864.78L1347.39 856.484L1339.1 869.621L1362 873.045L1339.1 876.468L1347.39 889.605L1334.26 881.309L1330.84 903L1327.42 881.309L1314.29 889.605L1322.58 876.468L1299 873.045L1322.58 869.621L1314.29 856.484L1327.42 864.78L1330.84 842Z" fill="#FFDE86"/>
<path d="M1168.07 703.397C1178.42 706.102 1184.42 701.598 1188 687.884C1184.42 701.598 1187.42 708.452 1197.8 711.166C1187.42 708.452 1181.41 713.128 1177.87 726.678C1181.41 713.128 1178.42 706.102 1168.07 703.397Z" fill="#FFDE86" stroke="#FFDE86" stroke-width="1.5" stroke-linejoin="round"/>
<path d="M944.371 1082.65C936.032 1107.44 907.876 1113.17 888.493 1100.95C862.57 1098.24 846.259 1077.24 854.598 1052.45C862.936 1027.66 891.844 1006.88 913.902 1025.41C941.04 1023.06 952.71 1057.86 944.371 1082.65Z" fill="#F66F66"/>
<path d="M904.647 1009.78C912.145 1012.7 913.209 1022.42 912.804 1026.92C915.036 1022.34 918.617 1012.6 915.088 1010.25C911.56 1007.89 906.658 1008.95 904.647 1009.78Z" fill="#753A00"/>
<path d="M912.62 1027.13C913.358 1024.56 917.381 1019.14 927.563 1017.97C926.299 1023.57 920.704 1030.25 912.62 1027.13Z" fill="#B5C343"/>
<rect x="983" y="1038.7" width="147.016" height="72.8792" rx="10" transform="rotate(-30.0856 983 1038.7)" fill="#B5C343"/>
<path d="M789.068 1029.4C799.422 1032.1 805.42 1027.6 809.003 1013.88C805.42 1027.6 808.417 1034.45 818.803 1037.17C808.417 1034.45 802.408 1039.13 798.867 1052.68C802.408 1039.13 799.422 1032.1 789.068 1029.4Z" fill="#FFDE86" stroke="#FFDE86" stroke-width="1.5" stroke-linejoin="round"/>
<path d="M1325.37 1086.65C1317.03 1111.44 1288.88 1117.17 1269.49 1104.95C1243.57 1102.24 1227.26 1081.24 1235.6 1056.45C1243.94 1031.66 1272.84 1010.88 1294.9 1029.41C1322.04 1027.06 1333.71 1061.86 1325.37 1086.65Z" fill="#F66F66"/>
<path d="M1285.65 1013.78C1293.15 1016.7 1294.21 1026.42 1293.8 1030.92C1296.04 1026.34 1299.62 1016.6 1296.09 1014.25C1292.56 1011.89 1287.66 1012.95 1285.65 1013.78Z" fill="#753A00"/>
<path d="M1293.62 1031.13C1294.36 1028.56 1298.38 1023.14 1308.56 1021.97C1307.3 1027.57 1301.7 1034.25 1293.62 1031.13Z" fill="#B5C343"/>
<rect x="1364" y="1042.7" width="147.016" height="72.8792" rx="10" transform="rotate(-30.0856 1364 1042.7)" fill="#B5C343"/>
<path d="M1170.07 1033.4C1180.42 1036.1 1186.42 1031.6 1190 1017.88C1186.42 1031.6 1189.42 1038.45 1199.8 1041.17C1189.42 1038.45 1183.41 1043.13 1179.87 1056.68C1183.41 1043.13 1180.42 1036.1 1170.07 1033.4Z" fill="#FFDE86" stroke="#FFDE86" stroke-width="1.5" stroke-linejoin="round"/>
</g>
</g>
</g>
<defs>
<clipPath id="clip0_343_66">
<rect width="1440" height="1024" fill="white"/>
</clipPath>
</defs>
</svg>
